<svg id="Layer_1" data-name="Layer 1" xmlns="http://www.w3.org/2000/svg" viewBox="0 0 550 550"><defs><style>.cls-1{fill:#fff;}.cls-2{fill:#eb6663;}</style></defs><title>Artboard 2 copy</title><path class="cls-1" d="M467.58,174.26,321.64,427.05a51.27,51.27,0,0,1-19,18.9l0-.07A51.11,51.11,0,0,1,279,452.7l-.82,0h-.74a51.4,51.4,0,0,1-44.94-77.14l146-252.78a51.44,51.44,0,1,1,89.1,51.44Z"/><path class="cls-1" d="M105.2,104a51.49,51.49,0,0,1,70.27,18.83L262.53,273.6l-51.67,89.49a77.53,77.53,0,0,0-6.7,15.19l-117.79-204A51.5,51.5,0,0,1,105.2,104Z"/><path class="cls-2" d="M496.9,128.75A76.47,76.47,0,0,0,356.8,110.3L277,248.57,197.15,110.3A76.47,76.47,0,1,0,64.7,186.78L210.64,439.56a76,76,0,0,0,46.43,35.63A76.75,76.75,0,0,0,277,477.83a77,77,0,0,0,66.32-38.27l146-252.78A76,76,0,0,0,496.9,128.75ZM105.2,104a51.49,51.49,0,0,1,70.27,18.83L262.53,273.6l-51.67,89.49a77.53,77.53,0,0,0-6.7,15.19l-117.79-204A51.5,51.5,0,0,1,105.2,104Zm362.38,70.27L321.64,427.05a51.27,51.27,0,0,1-19,18.9l0-.07A51.11,51.11,0,0,1,279,452.7l-.82,0h-.74a51.4,51.4,0,0,1-44.94-77.14l146-252.78a51.44,51.44,0,1,1,89.1,51.44Z"/><circle class="cls-2" cx="279.13" cy="397.78" r="21.54"/></svg>