<?xml version="1.0" encoding="utf-8"?>
<!-- Generator: Adobe Illustrator 22.0.1, SVG Export Plug-In . SVG Version: 6.00 Build 0)  -->
<svg version="1.1" id="Layer_1" xmlns="http://www.w3.org/2000/svg" xmlns:xlink="http://www.w3.org/1999/xlink" x="0px" y="0px"
	 viewBox="0 0 1788.2 451.5" style="enable-background:new 0 0 1788.2 451.5;" xml:space="preserve">
<style type="text/css">
	.st0{fill:#EB6663;}
	.st1{fill:#666666;}
</style>
<g>
	<g>
		<path class="st0" d="M123.1,302.4l-60.6-151c-4.3-10.3,0-17.4,11.3-17.4h17c8.9,0,14.5,3.9,17.4,12.4l43.2,117.6l43.2-117.6
			c2.8-8.5,8.5-12.4,17-12.4h17.4c11,0,15.6,7.1,11.3,17.4l-60.6,151c-3.2,7.8-8.9,11.7-17.7,11.7h-21.3
			C132.4,314.1,126.3,310.2,123.1,302.4z"/>
		<path class="st0" d="M251.4,224.1c0-52.4,35.8-93.9,87.9-93.9c23.7,0,45.7,8.9,61,30.8v-11.7c0-9.6,5.3-15.2,14.9-15.2h15.6
			c9.6,0,15.2,5.7,15.2,15.2v149.9c0,9.6-5.7,14.9-15.2,14.9h-15.6c-9.6,0-14.9-5.3-14.9-14.9v-12c-15.2,22-37.2,30.8-61,30.8
			C287.2,318,251.4,276.5,251.4,224.1z M401,224.1c-0.4-32.2-21.3-56-52.8-56c-32.2,0-51,25.5-51,56c0,30.8,18.8,56,51,56
			C379.7,280.1,400.6,256.3,401,224.1z"/>
		<path class="st0" d="M495.6,380c-8.2-4.6-9.6-12-5.3-20.6l3.5-6.4c5-8.9,11.7-10.3,20.2-5.3c14.5,8.5,30.8,12.8,47.8,12.8
			c32.6,0,55.3-18.1,55.3-54.9v-18.4c-14.9,22-37.6,30.8-61.3,30.8c-52.1,0-87.5-42.2-87.5-93.9c0-51.4,35.4-93.9,87.5-93.9
			c23.7,0,46.1,8.9,61,30.8v-12.8c0-9.2,5.3-14.2,14.9-14.2h15.2c9.6,0,14.9,5.7,14.9,15.2v156.6c0,64.8-45.4,91.4-97.4,91.4
			C534.9,397.3,513.3,390.3,495.6,380z M617.5,224.1c-0.4-32.2-21.3-56.3-52.8-56.3c-32.2,0-51,25.9-51,56.3
			c0,30.8,18.8,56.3,51,56.3C596.2,280.4,617.1,256.3,617.5,224.1z"/>
		<path class="st0" d="M684.1,224.1c0-52.4,35.8-93.9,87.9-93.9c23.7,0,45.7,8.9,60.9,30.8v-11.7c0-9.6,5.3-15.2,14.9-15.2h15.6
			c9.6,0,15.2,5.7,15.2,15.2v149.9c0,9.6-5.7,14.9-15.2,14.9h-15.6c-9.6,0-14.9-5.3-14.9-14.9v-12c-15.2,22-37.2,30.8-60.9,30.8
			C719.9,318,684.1,276.5,684.1,224.1z M833.6,224.1c-0.4-32.2-21.3-56-52.8-56c-32.2,0-51,25.5-51,56c0,30.8,18.8,56,51,56
			C812.4,280.1,833.3,256.3,833.6,224.1z"/>
		<path class="st0" d="M920.1,299.2V149.3c0-9.6,5.3-15.2,14.9-15.2h14.9c9.6,0,14.9,5.7,14.9,15.2v24.8c6-30.8,29.1-43.9,47.5-43.9
			c1.4,0,5.3,0.4,7.1,0.7c7.8,0.7,9.2,7.1,9.2,14.2v17.7c0,9.2-4.3,13.1-11,12c-3.2-0.7-6.4-1.1-9.2-1.1c-17,0-42.5,10.3-42.5,69.1
			v56.3c0,9.6-5.7,14.9-15.2,14.9H935C925.4,314.1,920.1,308.8,920.1,299.2z"/>
		<path class="st0" d="M1023.6,224.1c0-51.7,42.2-93.9,97.1-93.9c54.9,0,97.4,42.5,97.4,93.9c0,52.1-42.5,93.9-97.4,93.9
			C1065.7,318,1023.6,276.2,1023.6,224.1z M1173.8,224.4c0-31.2-23.4-56-53.2-56c-29.8,0-53.2,24.8-53.2,56
			c0,30.8,23.4,55.3,53.2,55.3C1150.4,279.7,1173.8,255.3,1173.8,224.4z"/>
	</g>
	<g>
		<path class="st1" d="M1284.9,160.4h50.7c20.7,0,34,12,34,31.5c0,15.5-10.5,26.1-21.6,28.3c13.1,2,24,15.7,24,30.3
			c0,20.5-13.3,33.3-35.3,33.3h-51.8V160.4z M1334.3,215.7c15.9,0,24.2-10,24.2-22.8c0-12.6-8.3-22.9-24.2-22.9h-38.8v45.7H1334.3z
			 M1335,274.2c16.3,0,25.9-9.4,25.9-24.4c0-12.6-8.7-24.4-25.9-24.4h-39.6v48.8H1335z"/>
		<path class="st1" d="M1402.2,160.4h10.5v113.8h59.8v9.6h-70.3V160.4z"/>
		<path class="st1" d="M1540.2,158.4c36.1,0,59.9,27.8,59.9,63.8c0,36.1-23.9,63.8-59.9,63.8c-36.3,0-59.9-27.7-59.9-63.8
			C1480.3,186.1,1503.9,158.4,1540.2,158.4z M1540.2,168c-30,0-48.8,22.8-48.8,54.2c0,31.1,18.9,54.2,48.8,54.2
			c29.6,0,48.8-23.1,48.8-54.2C1589,190.8,1569.8,168,1540.2,168z"/>
		<path class="st1" d="M1680.4,158.4c20.3,0,35.1,8.1,46.4,21.1l-8,5.7c-8.7-10.4-22.8-17.2-38.5-17.2c-29,0-51.4,22-51.4,54.2
			c0,31.8,22.4,54.4,51.4,54.4c16.5,0,29.4-8.1,36.3-15V232h-46.6v-9.4h57.2v43.1c-10.9,12.2-27.4,20.5-46.8,20.5
			c-34.6,0-62.5-25.9-62.5-64S1645.8,158.4,1680.4,158.4z"/>
	</g>
</g>
</svg>
