<svg id="Layer_1" data-name="Layer 1" xmlns="http://www.w3.org/2000/svg" viewBox="0 0 600 140"><defs><style>.cls-1{fill:#eb6663;}</style></defs><title>Artboard 4</title><path class="cls-1" d="M32.26,90,.84,11.75c-2.21-5.32,0-9,5.88-9h8.82c4.59,0,7.53,2,9,6.43L47,70.18l22.41-61c1.47-4.41,4.41-6.43,8.82-6.43h9c5.69,0,8.08,3.68,5.88,9L61.66,90c-1.66,4-4.6,6.06-9.19,6.06h-11C37,96.09,33.91,94.07,32.26,90Z"/><path class="cls-1" d="M98.77,49.42C98.77,22.23,117.33.73,144.34.73c12.31,0,23.7,4.59,31.6,16V10.65c0-5,2.76-7.9,7.72-7.9h8.08c5,0,7.9,2.94,7.9,7.9V88.37c0,5-2.94,7.72-7.9,7.72h-8.08c-5,0-7.72-2.75-7.72-7.72V82.13c-7.9,11.39-19.29,16-31.6,16C117.33,98.11,98.77,76.61,98.77,49.42Zm77.54,0c-.19-16.72-11-29-27.38-29-16.72,0-26.46,13.23-26.46,29,0,16,9.74,29,26.46,29C165.28,78.45,176.12,66.14,176.31,49.42Z"/><path class="cls-1" d="M225.36,130.27c-4.22-2.39-5-6.25-2.75-10.66l1.84-3.31c2.57-4.59,6.06-5.33,10.47-2.75a48.66,48.66,0,0,0,24.8,6.61c16.91,0,28.67-9.37,28.67-28.48V82.13c-7.72,11.39-19.48,16-31.79,16-27,0-45.38-21.86-45.38-48.69C211.22,22.78,229.59.73,256.6.73c12.31,0,23.89,4.59,31.6,16V10.1c0-4.78,2.76-7.35,7.72-7.35h7.9c5,0,7.72,2.94,7.72,7.9V91.86c0,33.63-23.52,47.41-50.53,47.41C245.76,139.27,234.55,135.59,225.36,130.27Zm63.21-80.85c-.18-16.72-11-29.21-27.38-29.21-16.72,0-26.45,13.41-26.45,29.21,0,16,9.73,29.22,26.45,29.22C277.55,78.64,288.39,66.14,288.57,49.42Z"/><path class="cls-1" d="M323.11,49.42c0-27.19,18.56-48.69,45.57-48.69,12.31,0,23.7,4.59,31.6,16V10.65c0-5,2.76-7.9,7.72-7.9h8.08c5,0,7.9,2.94,7.9,7.9V88.37c0,5-2.94,7.72-7.9,7.72H408c-5,0-7.72-2.75-7.72-7.72V82.13c-7.9,11.39-19.29,16-31.6,16C341.67,98.11,323.11,76.61,323.11,49.42Zm77.54,0c-.19-16.72-11-29-27.38-29-16.72,0-26.46,13.23-26.46,29,0,16,9.74,29,26.46,29C389.62,78.45,400.46,66.14,400.65,49.42Z"/><path class="cls-1" d="M445.48,88.37V10.65c0-5,2.75-7.9,7.72-7.9h7.71c5,0,7.72,2.94,7.72,7.9V23.51C471.75,7.53,483.7.73,493.25.73a26.51,26.51,0,0,1,3.67.37c4.05.37,4.78,3.67,4.78,7.35v9.18c0,4.78-2.2,6.8-5.69,6.25a22.35,22.35,0,0,0-4.78-.55c-8.82,0-22.05,5.33-22.05,35.83V88.37c0,5-2.94,7.72-7.9,7.72H453.2C448.23,96.09,445.48,93.34,445.48,88.37Z"/><path class="cls-1" d="M499.13,49.42C499.13,22.6,521,.73,549.47.73S600,22.78,600,49.42c0,27-22,48.69-50.53,48.69S499.13,76.43,499.13,49.42Zm77.9.19c0-16.17-12.12-29-27.56-29s-27.56,12.87-27.56,29c0,16,12.13,28.66,27.56,28.66S577,65.59,577,49.61Z"/></svg>